# xmcd
#
# Track frame offsets: 
#        150
#        16171
#        30729
#        43067
#        52757
#        64680
#        79659
#        91428
#        102951
#        115622
#
# Disc length: 1704 seconds
#
# Revision: 0
# Processed by: cddbd v1.5.2PL0 Copyright (c) Steve Scherf et al.
# Submitted via: ExactAudioCopy v0.99pb4
#
DISCID=6f06a60a
DTITLE=Various Artist - Classic Country Duets
DYEAR=1985
DGENRE=Classic Country
TTITLE0=Don Williams and Emmylou Harris - If I Needed You
TTITLE1=Barbara Mandrell and Steve Wariner - Overnight Sensation
TTITLE2=Bill Anderson and Jan Howard - For Loving You
TTITLE3=Jack Greene and Jeannie Seely - Wish I Didn't Have to Miss You
TTITLE4=Loretta Lynn and Ernest Tubb -  Sweet Thang
TTITLE5=Barbara Mandrell and Lee Greenwood - Soft Shoulder
TTITLE6=Loretta Lynn and Conway Twitty - After the Fire is Gone
TTITLE7=Kitty Wells and Roy Acuff - Goodbye Mr. Brown
TTITLE8=The Kendalls - Never Ending Song of Love
TTITLE9=Merle Haggard and Leona Williams - The Bull and The Beaver
EXTD=
EXTT0=
EXTT1=
EXTT2=
EXTT3=
EXTT4=
EXTT5=
EXTT6=
EXTT7=
EXTT8=
EXTT9=
PLAYORDER=
